<svg id="Layer_2" height="512" viewBox="0 0 128 128" width="512" xmlns="http://www.w3.org/2000/svg" data-name="Layer 2"><path d="m96.86 16.473a10.741 10.741 0 0 0 -19.426-6.329 14.947 14.947 0 0 0 -26.868 0 10.743 10.743 0 1 0 -12.585 16.335l.519 10.521h51l.519-10.521a10.745 10.745 0 0 0 6.841-10.006z" fill="#efebe9"/><path d="m64 38.75a1.751 1.751 0 0 1 -1.75-1.75v-12.667a1.75 1.75 0 0 1 3.5 0v12.667a1.751 1.751 0 0 1 -1.75 1.75z" fill="#dfccc9"/><path d="m53.332 38.75a1.751 1.751 0 0 1 -1.7-1.334l-2.666-10.916a1.751 1.751 0 0 1 3.4-.831l2.667 10.916a1.75 1.75 0 0 1 -1.7 2.166z" fill="#dfccc9"/><path d="m74.668 38.75a1.75 1.75 0 0 1 -1.7-2.166l2.667-10.916a1.751 1.751 0 0 1 3.4.831l-2.668 10.917a1.751 1.751 0 0 1 -1.699 1.334z" fill="#dfccc9"/><path d="m59.753 101.378h.132l-19.635-9.613-7.762.763a20.041 20.041 0 0 0 -18.081 19.945v13.777h35.346v-14.872a10 10 0 0 1 10-10z" fill="#efebe9"/><path d="m68.115 101.378v-9.753l9.056-3.925a6.253 6.253 0 0 1 -.576-1.917l-.98-7.663a19.527 19.527 0 0 1 -23.23 0l-.98 7.663a6.253 6.253 0 0 1 -.576 1.917l9.056 3.922v9.753z" fill="#f9bd91"/><path d="m41.641 47.07v2.617a19.856 19.856 0 0 0 .447 4.177l1.349 6.157 1.421 6.519c.125.559.269 1.1.434 1.644s.355 1.06.565 1.579a19.6 19.6 0 0 0 36.286 0c.21-.519.4-1.046.565-1.579s.309-1.085.434-1.644l1.421-6.519 1.349-6.157a19.856 19.856 0 0 0 .447-4.177v-2.617z" fill="#fcd2ae"/><path d="m42.09 53.863a19.576 19.576 0 0 1 -.451-4.179v-1.167a6.083 6.083 0 1 0 1.8 11.506z" fill="#fcd2ae"/><g fill="#a1887f"><path d="m64.223 61.34h1.749a1.75 1.75 0 0 0 0-3.5h-1.461l.592-3.9a1.75 1.75 0 1 0 -3.461-.524l-.635 4.184a3.253 3.253 0 0 0 3.216 3.739z"/><path d="m58.08 49.552a3.91 3.91 0 1 0 -3.909 3.909 3.914 3.914 0 0 0 3.909-3.909z"/><path d="m72.575 45.642a3.91 3.91 0 1 0 3.909 3.91 3.914 3.914 0 0 0 -3.909-3.91z"/><path d="m68.5 65.083a6.87 6.87 0 0 1 -9.231 0 1.75 1.75 0 1 0 -2.7 2.226 9.457 9.457 0 0 0 7.317 3.056 9.458 9.458 0 0 0 7.314-3.056 1.75 1.75 0 1 0 -2.7-2.226z"/></g><path d="m86.965 48.454a5.5 5.5 0 0 0 -.606.046v1.187a19.856 19.856 0 0 1 -.447 4.177l-1.349 6.157-.018.086a6.016 6.016 0 0 0 2.42.517 6.085 6.085 0 0 0 0-12.17z" fill="#fcd2ae"/><path d="m89.5 37h-51v6a4 4 0 0 0 4 4h43a4 4 0 0 0 4-4z" fill="#a1887f"/><path d="m59.885 91.625v9.753l-19.635-9.613 3.185-7.265z" fill="#4570a1"/><path d="m68.115 91.625v9.753l19.635-9.613-3.185-7.265z" fill="#4570a1"/><path d="m49.753 126.25h63.84v-13.777a20.041 20.041 0 0 0 -18.081-19.945l-7.762-.763-19.635 9.613h-8.362a10 10 0 0 0 -10 10z" fill="#efebe9"/><path d="m49.753 126.25v-14.872a10 10 0 0 1 10-10h.132l-5.749-2.814a14.014 14.014 0 0 0 -8.383 12.814v14.872z" fill="#dfccc9"/><path d="m66.5 111.667h-7.566a1.75 1.75 0 0 1 0-3.5h7.566a1.75 1.75 0 0 1 0 3.5z" fill="#4570a1"/><path d="m66.5 120.205h-7.566a1.75 1.75 0 0 1 0-3.5h7.566a1.75 1.75 0 0 1 0 3.5z" fill="#4570a1"/><path d="m25.875 115.5a1.751 1.751 0 0 0 -1.75 1.75v9h3.5v-9a1.751 1.751 0 0 0 -1.75-1.75z" fill="#dfccc9"/><path d="m102.125 115.5a1.751 1.751 0 0 0 -1.75 1.75v9h3.5v-9a1.751 1.751 0 0 0 -1.75-1.75z" fill="#dfccc9"/></svg>